<svg width="113" height="69" viewBox="0 0 113 69" fill="none" xmlns="http://www.w3.org/2000/svg">
<path d="M7.47159 9.5625H9.5C9.46023 7.59659 7.78409 6.20455 5.30682 6.20455C2.86364 6.20455 1.02841 7.57955 1.03409 9.63636C1.03409 11.3068 2.22159 12.267 4.13636 12.7614L5.46023 13.1023C6.71591 13.4205 7.54545 13.8125 7.55114 14.7159C7.54545 15.7102 6.60227 16.375 5.22727 16.375C3.90909 16.375 2.88636 15.7841 2.80114 14.5625H0.727273C0.8125 16.875 2.53409 18.1761 5.24432 18.1761C8.03409 18.1761 9.65341 16.7841 9.65909 14.733C9.65341 12.7159 7.98864 11.7955 6.23864 11.3807L5.14773 11.108C4.19318 10.8807 3.15909 10.4773 3.17045 9.50568C3.17614 8.63068 3.96023 7.98864 5.27841 7.98864C6.53409 7.98864 7.36364 8.57386 7.47159 9.5625ZM13.9588 18.1761C15.3281 18.1761 16.1463 17.5341 16.5213 16.8011H16.5895V18H18.5668V12.1591C18.5668 9.85227 16.6861 9.15909 15.0213 9.15909C13.1861 9.15909 11.777 9.97727 11.3224 11.5682L13.2429 11.8409C13.4474 11.2443 14.027 10.733 15.0327 10.733C15.9872 10.733 16.5099 11.2216 16.5099 12.0795V12.1136C16.5099 12.7045 15.8906 12.733 14.3509 12.8977C12.6577 13.0795 11.0384 13.5852 11.0384 15.5511C11.0384 17.267 12.294 18.1761 13.9588 18.1761ZM14.4929 16.6648C13.6349 16.6648 13.0213 16.2727 13.0213 15.517C13.0213 14.7273 13.7088 14.3977 14.6293 14.267C15.169 14.1932 16.2486 14.0568 16.5156 13.8409V14.8693C16.5156 15.8409 15.7315 16.6648 14.4929 16.6648ZM28.1179 9.27273H25.9304L23.919 15.7557H23.8281L21.8224 9.27273H19.6293L22.7372 18H25.0099L28.1179 9.27273ZM33.108 18.1705C35.142 18.1705 36.5398 17.1761 36.9034 15.6591L34.983 15.4432C34.7045 16.1818 34.0227 16.5682 33.1364 16.5682C31.8068 16.5682 30.9261 15.6932 30.9091 14.1989H36.9886V13.5682C36.9886 10.5057 35.1477 9.15909 33 9.15909C30.5 9.15909 28.8693 10.9943 28.8693 13.6875C28.8693 16.4261 30.4773 18.1705 33.108 18.1705ZM30.9148 12.8125C30.9773 11.6989 31.8011 10.7614 33.0284 10.7614C34.2102 10.7614 35.0057 11.625 35.017 12.8125H30.9148ZM46.8509 18.1591C49.3395 18.1591 51.152 16.733 51.1463 14.767C51.152 13.3125 50.2429 12.267 48.6122 12.0341V11.9432C49.8736 11.6705 50.7202 10.733 50.7145 9.42614C50.7202 7.65341 49.2088 6.20455 46.8849 6.20455C44.6236 6.20455 42.8736 7.55114 42.8281 9.5H44.8565C44.8906 8.52273 45.7997 7.91477 46.8736 7.91477C47.9588 7.91477 48.6804 8.57386 48.6747 9.55114C48.6804 10.5682 47.8395 11.2443 46.6349 11.2443H45.6065V12.8693H46.6349C48.1065 12.8693 48.9815 13.608 48.9759 14.6591C48.9815 15.6875 48.0895 16.392 46.8452 16.392C45.6747 16.392 44.7713 15.7841 44.7202 14.8352H42.5838C42.6406 16.8011 44.3963 18.1591 46.8509 18.1591ZM57.142 18.1591C59.6023 18.1591 61.3182 16.4886 61.3182 14.1761C61.3182 11.9375 59.7614 10.3239 57.6477 10.3239C56.7045 10.3239 55.8693 10.6989 55.4375 11.2102H55.3693L55.7045 8.125H60.7102V6.36364H53.9602L53.3523 12.3636L55.2557 12.6761C55.6477 12.2443 56.3864 11.9545 57.0852 11.9602C58.3636 11.9659 59.2841 12.9091 59.2784 14.2273C59.2841 15.5284 58.3864 16.4545 57.142 16.4545C56.0909 16.4545 55.2443 15.7898 55.1705 14.8352H53.125C53.1818 16.767 54.8693 18.1591 57.142 18.1591ZM69.4432 15.8182C69.4489 17.1705 70.3068 18.3239 71.9034 18.3239C73.4943 18.3239 74.3693 17.1705 74.3636 15.8182V15.2045C74.3693 13.8409 73.517 12.6989 71.9034 12.6989C70.3295 12.6989 69.4489 13.8523 69.4432 15.2045V15.8182ZM63.5284 9.15909C63.5341 10.5114 64.392 11.6534 65.9943 11.6534C67.5795 11.6534 68.4545 10.5227 68.4489 9.15909V8.54545C68.4545 7.18182 67.6023 6.03977 65.9943 6.03977C64.4261 6.03977 63.5341 7.18182 63.5284 8.54545V9.15909ZM64.0398 18H65.4659L73.4659 6.36364H72.0398L64.0398 18ZM70.9261 15.2045C70.9318 14.6023 71.1875 13.9943 71.9034 13.9943C72.6534 13.9943 72.875 14.6023 72.8693 15.2045V15.8182C72.875 16.4205 72.6307 17.017 71.9034 17.017C71.1761 17.017 70.9318 16.4148 70.9261 15.8182V15.2045ZM65.0227 8.54545C65.0284 7.94886 65.2727 7.33523 65.9943 7.33523C66.7443 7.33523 66.9602 7.94318 66.9545 8.54545V9.15909C66.9602 9.76136 66.7216 10.358 65.9943 10.358C65.267 10.358 65.0284 9.76136 65.0227 9.15909V8.54545Z" fill="#A16F98"/>
<path d="M106.438 57.6949C92.1003 44.756 82.7426 57.1108 69.982 46.499C60.3697 38.5052 57.3205 35.6959 49.4254 35.2424" stroke="#D4BBE8"/>
<path d="M104.517 54.3989C90.1385 41.4449 80.7702 53.7959 67.9735 43.1709C60.5152 36.9783 56.9969 33.8933 52.1216 32.6012" stroke="#BF8DB6" stroke-width="2" stroke-linecap="round"/>
<path d="M107.858 54.6021C108.545 55.9802 108.888 56.6692 108.569 57.1506C108.25 57.6319 107.482 57.5846 105.945 57.4901L103.848 57.3612C102.311 57.2667 101.543 57.2194 101.286 56.7027C101.028 56.1859 101.453 55.5441 102.303 54.2605L103.464 52.5088C104.314 51.2252 104.739 50.5834 105.315 50.6188C105.891 50.6543 106.235 51.3433 106.921 52.7214L107.858 54.6021Z" fill="#BF8DB6"/>
</svg>
