<svg width="16" height="16" viewBox="0 0 16 16" fill="none" xmlns="http://www.w3.org/2000/svg">
<path d="M7.99994 0.5C3.85994 0.5 0.499939 3.86 0.499939 8C0.499939 12.14 3.85994 15.5 7.99994 15.5C12.1399 15.5 15.4999 12.14 15.4999 8C15.4999 3.86 12.1399 0.5 7.99994 0.5ZM11.7124 6.6725L7.46744 10.9175C7.39805 10.987 7.31564 11.0422 7.22491 11.0798C7.13418 11.1175 7.03692 11.1368 6.93869 11.1368C6.84046 11.1368 6.7432 11.1175 6.65247 11.0798C6.56174 11.0422 6.47932 10.987 6.40994 10.9175L4.28744 8.795C4.218 8.72556 4.16292 8.64313 4.12534 8.55241C4.08777 8.46169 4.06842 8.36445 4.06842 8.26625C4.06842 8.16805 4.08777 8.07082 4.12534 7.98009C4.16292 7.88937 4.218 7.80694 4.28744 7.7375C4.35688 7.66806 4.43931 7.61298 4.53003 7.57541C4.62076 7.53783 4.71799 7.51849 4.81619 7.51849C4.91439 7.51849 5.01162 7.53783 5.10235 7.57541C5.19307 7.61298 5.2755 7.66806 5.34494 7.7375L6.93494 9.3275L10.6474 5.615C10.7168 5.54547 10.7992 5.49031 10.89 5.45268C10.9807 5.41504 11.078 5.39567 11.1762 5.39567C11.2744 5.39567 11.3717 5.41504 11.4624 5.45268C11.5531 5.49031 11.6356 5.54547 11.7049 5.615C12.0049 5.9075 12.0049 6.38 11.7124 6.6725Z" fill="white"/>
</svg>
